<svg width="32" height="32" viewBox="0 0 32 32" fill="none" xmlns="http://www.w3.org/2000/svg">
<path d="M14.2346 19.6248C15.4882 19.956 18.2282 20.6796 18.6638 18.9292C19.1101 17.1396 16.4533 16.5433 15.1566 16.2523C15.0116 16.2198 14.8836 16.191 14.7788 16.1649L13.9351 19.5471C14.0211 19.5685 14.1218 19.5951 14.2346 19.6248Z" fill="#F7931A"/>
<path d="M15.4167 14.6826C16.4619 14.9615 18.7419 15.57 19.139 13.979C19.5444 12.3519 17.3288 11.8613 16.2466 11.6217C16.1249 11.5948 16.0175 11.571 15.9298 11.5491L15.1648 14.6166C15.237 14.6346 15.3218 14.6572 15.4167 14.6826Z" fill="#F7931A"/>
<path fill-rule="evenodd" clip-rule="evenodd" d="M12.6121 29.584C20.1139 31.4544 27.7111 26.8895 29.581 19.3886C31.4512 11.8874 26.8865 4.28899 19.3852 2.41897C11.8857 0.548964 4.28852 5.11422 2.41933 12.616C0.548494 20.1163 5.1134 27.7139 12.6121 29.584ZM19.0945 10.4736C21.0343 11.1418 22.4529 12.1434 22.1742 14.0067C21.9726 15.3707 21.217 16.0312 20.213 16.2627C21.5914 16.9803 22.2928 18.0808 21.6247 19.9887C20.7955 22.3585 18.8255 22.5584 16.2055 22.0626L15.5698 24.6107L14.0333 24.2279L14.6608 21.7139C14.2625 21.615 13.8556 21.51 13.4363 21.3962L12.8067 23.922L11.272 23.5392L11.9078 20.9862C11.7602 20.9485 11.6116 20.9097 11.4619 20.8707C11.2477 20.8149 11.0314 20.7585 10.8124 20.7036L8.81299 20.2051L9.5758 18.4464C9.5758 18.4464 10.7079 18.7474 10.6925 18.7251C11.1275 18.8328 11.3205 18.5491 11.3965 18.3601L12.4013 14.332C12.4417 14.3417 12.4811 14.3516 12.519 14.3611C12.5342 14.3649 12.5491 14.3686 12.5637 14.3722C12.5024 14.3476 12.4468 14.3318 12.404 14.3209L13.1208 11.4455C13.1395 11.1191 13.0269 10.7072 12.4048 10.5519C12.4288 10.5358 11.2889 10.2745 11.2889 10.2745L11.6976 8.63351L13.8164 9.16261L13.8146 9.17055C14.1331 9.2498 14.4614 9.32501 14.7957 9.40112L15.4253 6.87793L16.9608 7.26077L16.3437 9.73455C16.756 9.82865 17.1708 9.92358 17.5747 10.0243L18.1873 7.56676L19.7238 7.94961L19.0945 10.4736Z" fill="#F7931A"/>
</svg>
