<svg width="32" height="32" viewBox="0 0 32 32" fill="none" xmlns="http://www.w3.org/2000/svg">
<path d="M18.5827 2.02197L18.5698 8.20945L18.5569 14.3969L17.9639 12.9606V12.9569L17.1947 26.7314C17.951 28.5582 18.355 29.5342 18.3593 29.5378C18.3636 29.5415 18.7933 29.5636 19.3133 29.5857C20.8861 29.652 22.837 29.7957 24.3196 29.954C24.6633 29.9909 24.9556 30.0093 24.977 29.9945C24.9985 29.9798 25.0028 23.6818 24.9985 15.9954L24.9856 2.02197H18.5827Z" fill="white"/>
<path d="M7 2.00368V15.9918C7 23.6857 7.00859 29.9874 7.02149 29.9984C7.03438 30.0095 7.58873 29.9616 8.2591 29.899C8.92947 29.8364 9.85339 29.7553 10.3132 29.7222C11.018 29.6706 13.1322 29.5564 13.3729 29.5528C13.4459 29.5528 13.4502 29.2397 13.4588 23.6268L13.4717 17.7008L13.9831 18.9383C14.0604 19.1298 14.0862 19.1887 14.1636 19.3765L14.9328 5.60569C14.7695 5.2116 14.8554 5.41785 14.6706 4.96852C14.0432 3.44743 13.5104 2.16205 13.4889 2.10312L13.4459 2H7V2.00368Z" fill="white"/>
<path d="M7 2.00368L13.4674 17.7117V17.7044L13.9788 18.9418C16.8193 25.8328 18.3449 29.5305 18.3535 29.5379C18.3578 29.5415 18.7875 29.5636 19.3075 29.5857C20.8803 29.652 22.8312 29.7957 24.3138 29.954C24.6533 29.9909 24.9498 30.0093 24.967 29.9946L18.5554 14.3933V14.397L17.9624 12.9606C17.3823 11.5574 16.9955 10.6182 14.6621 4.96851C14.0347 3.44742 13.5018 2.16205 13.4803 2.10312L13.4373 2H10.2187L7 2.00368Z" fill="white"/>
</svg>
