<svg width="32" height="32" viewBox="0 0 32 32" fill="none" xmlns="http://www.w3.org/2000/svg">
<path fill-rule="evenodd" clip-rule="evenodd" d="M16 30C23.732 30 30 23.732 30 16C30 8.26801 23.732 2 16 2C8.26801 2 2 8.26801 2 16C2 23.732 8.26801 30 16 30ZM21.2163 21.881C21.6149 22.1087 22.1252 22.0025 22.3643 21.623C22.6035 21.2434 22.476 20.7576 22.0773 20.5299C18.5693 18.4805 14.2002 18.0099 9.11348 19.1181C8.667 19.2092 8.39593 19.6343 8.4916 20.0593C8.58728 20.4844 9.03375 20.7425 9.48023 20.6514C14.1364 19.6494 18.075 20.0593 21.2163 21.881ZM22.5557 18.4957C23.05 18.769 23.6878 18.6323 23.9908 18.1617C24.2938 17.6911 24.1343 17.0839 23.6719 16.8106C19.542 14.3969 13.5145 13.7289 8.667 15.1256C8.1089 15.2774 7.80594 15.8239 7.96539 16.3552C8.12485 16.8714 8.6989 17.1598 9.25699 17.008C13.4985 15.7783 18.9679 16.3856 22.5557 18.4957ZM8.61917 13.0761C12.7332 11.892 19.829 12.1197 24.1343 14.5487C24.7243 14.8978 25.4897 14.7005 25.8246 14.1236C26.1754 13.5619 25.984 12.8332 25.394 12.4993C20.4509 9.70599 12.6056 9.43274 7.88567 10.799C7.23189 10.9964 6.8492 11.6643 7.05649 12.2867C7.26378 12.9243 7.96539 13.2735 8.61917 13.0761Z" fill="#1ED760"/>
</svg>
