<svg width="32" height="32" viewBox="0 0 32 32" fill="none" xmlns="http://www.w3.org/2000/svg">
<path fill-rule="evenodd" clip-rule="evenodd" d="M2.69029 5.45806C2 6.81283 2 8.58633 2 12.1333V19.8667C2 23.4137 2 25.1872 2.69029 26.5419C3.29749 27.7336 4.26637 28.7025 5.45806 29.3097C6.81283 30 8.58633 30 12.1333 30H19.8667C23.4137 30 25.1872 30 26.5419 29.3097C27.7336 28.7025 28.7025 27.7336 29.3097 26.5419C30 25.1872 30 23.4137 30 19.8667V12.1333C30 8.58633 30 6.81283 29.3097 5.45806C28.7025 4.26637 27.7336 3.29749 26.5419 2.69029C25.1872 2 23.4137 2 19.8667 2H12.1333C8.58633 2 6.81283 2 5.45806 2.69029C4.26637 3.29749 3.29749 4.26637 2.69029 5.45806ZM13.2059 8C13.2207 8.00393 7 23 7 23L17.0122 23C17.0122 22.9875 16.7715 22.4048 16.5021 21.7526C16.1565 20.9162 15.7637 19.9655 15.771 19.9567H12.9164C12.9484 19.9491 15.5972 13.784 15.606 13.7037C15.6563 13.7963 19.6641 23.0079 19.6601 23L25 23L17.9301 8H13.2059Z" fill="white"/>
</svg>
