<svg width="32" height="32" viewBox="0 0 32 32" fill="none" xmlns="http://www.w3.org/2000/svg">
<path fill-rule="evenodd" clip-rule="evenodd" d="M20.2295 2.06385L4.68972 3.20737C3.43668 3.31581 3 4.13266 3 5.11196V22.0962C3 22.8593 3.2722 23.5115 3.92677 24.3832L7.57975 29.1192C8.17978 29.8818 8.72508 30.045 9.87084 29.9904L27.9171 28.9014C29.4434 28.7931 29.88 28.0849 29.88 26.8874V7.77963C29.88 7.1606 29.6349 6.98178 28.9123 6.45464C28.8725 6.42564 28.8314 6.39559 28.7887 6.36435L23.8282 2.88049C22.6288 2.00986 22.1378 1.9003 20.2295 2.06385ZM10.28 7.46622C8.80665 7.56563 8.47187 7.58822 7.63516 6.909L5.50743 5.2215C5.29042 5.00329 5.39926 4.73108 5.9441 4.67709L20.8839 3.58824C22.1376 3.47913 22.7917 3.91534 23.2827 4.29622L25.8451 6.14725C25.9542 6.20147 26.2263 6.52768 25.8991 6.52768L10.4702 7.45343L10.28 7.46622ZM8.56149 26.7238V10.502C8.56149 9.79444 8.7796 9.46758 9.4335 9.41267L27.153 8.37872C27.754 8.32428 28.0262 8.7056 28.0262 9.41267V25.5256C28.0262 26.2338 27.9169 26.8334 26.9351 26.8874L9.97879 27.8678C8.99749 27.9217 8.56149 27.5956 8.56149 26.7238ZM25.3007 11.3722C25.4094 11.8626 25.3007 12.3526 24.809 12.4077L23.992 12.5703V24.5463C23.2827 24.9273 22.6286 25.1451 22.0835 25.1451C21.2108 25.1451 20.9923 24.8727 20.3386 24.0566L14.9945 15.6733V23.7843L16.6856 24.1657C16.6856 24.1657 16.6856 25.1451 15.3213 25.1451L11.5601 25.3631C11.4508 25.1451 11.5601 24.6011 11.9416 24.4921L12.9231 24.2203V13.4961L11.5603 13.387C11.4511 12.8966 11.7233 12.1895 12.4871 12.1346L16.522 11.8628L22.0835 20.3552V12.8425L20.6655 12.6799C20.5567 12.0804 20.9923 11.645 21.5375 11.591L25.3007 11.3722Z" fill="#1E2226"/>
</svg>
