<svg width="32" height="32" viewBox="0 0 32 32" fill="none" xmlns="http://www.w3.org/2000/svg">
<path d="M29.4149 9.12932C29.0929 7.89755 28.1441 6.92745 26.9394 6.59823C24.7559 6 16 6 16 6C16 6 7.2442 6 5.06058 6.59823C3.8559 6.9275 2.90711 7.89755 2.58509 9.12932C2 11.362 2 16.0202 2 16.0202C2 16.0202 2 20.6784 2.58509 22.9111C2.90711 24.1429 3.8559 25.0726 5.06058 25.4018C7.2442 26 16 26 16 26C16 26 24.7558 26 26.9394 25.4018C28.1441 25.0726 29.0929 24.1429 29.4149 22.9111C30 20.6784 30 16.0202 30 16.0202C30 16.0202 30 11.362 29.4149 9.12932ZM13.1363 20.2495V11.7909L20.4545 16.0203L13.1363 20.2495Z" fill="white"/>
</svg>
