<svg width="32" height="32" viewBox="0 0 32 32" fill="none" xmlns="http://www.w3.org/2000/svg">
<path d="M16.2449 13.8184V18.4657H22.8349C22.5455 19.9602 21.6771 21.2257 20.3747 22.0766L24.3487 25.0985C26.6642 23.004 28 19.9276 28 16.273C28 15.4221 27.9221 14.6039 27.7773 13.8185L16.2449 13.8184Z" fill="white"/>
<path d="M5.3137 10.6221C4.47886 12.2366 4.00024 14.0584 4.00024 16.0002C4.00024 17.942 4.47886 19.7639 5.3137 21.3784C5.3137 21.3892 9.388 18.2802 9.388 18.2802C9.14311 17.5602 8.99835 16.7966 8.99835 16.0001C8.99835 15.2036 9.14311 14.44 9.388 13.72L5.3137 10.6221Z" fill="white"/>
<path d="M16.2448 8.77821C18.0482 8.77821 19.6511 9.3891 20.9313 10.5673L24.4378 7.13097C22.3116 5.18917 19.551 4 16.2448 4C11.4582 4 7.32833 6.69456 5.31348 10.6219L9.38766 13.7201C10.3561 10.8837 13.0611 8.77821 16.2448 8.77821Z" fill="white"/>
<path d="M9.38238 18.2842L8.48609 18.9566L5.31348 21.3784C7.32833 25.2947 11.4579 28.0002 16.2445 28.0002C19.5506 28.0002 22.3224 26.9311 24.3484 25.0984L20.3744 22.0766C19.2835 22.7966 17.892 23.233 16.2445 23.233C13.0609 23.233 10.3559 21.1275 9.38739 18.2911L9.38238 18.2842Z" fill="white"/>
</svg>
