<svg width="32" height="32" viewBox="0 0 32 32" fill="none" xmlns="http://www.w3.org/2000/svg">
<path d="M16 2C8.26782 2 2 8.26762 2 15.9995C2 21.9302 5.68982 27.0007 10.8982 29.0406C10.7761 27.9325 10.665 26.2295 10.9468 25.0204C11.2011 23.9279 12.5884 18.0615 12.5884 18.0615C12.5884 18.0615 12.1697 17.2233 12.1697 15.983C12.1697 14.0367 13.2981 12.5834 14.7027 12.5834C15.8972 12.5834 16.4737 13.4804 16.4737 14.5554C16.4737 15.7563 15.709 17.5529 15.3142 19.2164C14.9846 20.6101 16.0129 21.7466 17.3872 21.7466C19.8753 21.7466 21.7886 19.1228 21.7886 15.3358C21.7886 11.9839 19.3795 9.64012 15.9403 9.64012C11.9567 9.64012 9.61834 12.6275 9.61834 15.7159C9.61834 16.9194 10.082 18.2093 10.6604 18.9107C10.7751 19.0493 10.7917 19.1705 10.7577 19.3119C10.6512 19.7544 10.4152 20.7046 10.3684 20.8992C10.3069 21.1554 10.1655 21.2095 9.90019 21.0865C8.15122 20.2731 7.05869 17.7163 7.05869 15.6635C7.05869 11.2476 10.2674 7.19165 16.3094 7.19165C21.1661 7.19165 24.9404 10.6518 24.9404 15.277C24.9404 19.9022 21.8978 23.9849 17.6755 23.9849C16.2571 23.9849 14.9231 23.2476 14.4668 22.3773C14.4668 22.3773 13.7644 25.0498 13.5946 25.7053C13.2788 26.9208 12.4249 28.4457 11.8548 29.3757C13.1649 29.7815 14.5568 30 16 30C23.7322 30 30 23.7324 30 16.0005C30 8.26853 23.7322 2.00092 16 2.00092" fill="white"/>
</svg>
