<svg width="32" height="32" viewBox="0 0 32 32" fill="none" xmlns="http://www.w3.org/2000/svg">
<path fill-rule="evenodd" clip-rule="evenodd" d="M25.3333 4H6.66667C5.19333 4 4 5.19333 4 6.66667V25.3333C4 26.8067 5.19333 28 6.66667 28H25.3333C26.8067 28 28 26.8067 28 25.3333V6.66667C28 5.19333 26.8067 4 25.3333 4ZM11.2567 24.6667H7.67667V13.11H11.2567V24.6667ZM9.45 11.5967C8.28 11.5967 7.33333 10.6433 7.33333 9.46333C7.33333 8.28333 8.28 7.33 9.45 7.33C10.62 7.33 11.5667 8.28333 11.5667 9.46333C11.5667 10.6433 10.62 11.5967 9.45 11.5967ZM24.6667 24.6667H21.1067V18.6C21.1067 16.9367 20.4733 16.0067 19.16 16.0067C17.7267 16.0067 16.98 16.9733 16.98 18.6V24.6667H13.5467V13.11H16.98V14.6667C16.98 14.6667 18.0133 12.7567 20.4633 12.7567C22.9133 12.7567 24.67 14.2533 24.67 17.35V24.6667H24.6667Z" fill="#0077B5"/>
</svg>
