<svg width="32" height="32" viewBox="0 0 32 32" fill="none" xmlns="http://www.w3.org/2000/svg">
<path fill-rule="evenodd" clip-rule="evenodd" d="M30 16C30 23.732 23.732 30 16 30C13.5789 30 11.3014 29.3854 9.31486 28.3038L2 30L3.81847 22.905C2.661 20.8674 2 18.5109 2 16C2 8.26801 8.26801 2 16 2C23.732 2 30 8.26801 30 16ZM27.8462 16C27.8462 22.5425 22.5425 27.8462 16 27.8462C13.5046 27.8462 11.1894 27.0746 9.27993 25.7569L5.23077 26.7692L6.29184 22.7902C4.9445 20.8675 4.15385 18.5261 4.15385 16C4.15385 9.45755 9.45755 4.15385 16 4.15385C22.5425 4.15385 27.8462 9.45755 27.8462 16Z" fill="white"/>
<path fill-rule="evenodd" clip-rule="evenodd" d="M16 28C22.6274 28 28 22.6274 28 16C28 9.37258 22.6274 4 16 4C9.37258 4 4 9.37258 4 16C4 18.5589 4.80092 20.9307 6.16576 22.8784L5.09091 26.9091L9.19266 25.8837C11.1269 27.2184 13.4722 28 16 28ZM11.2572 8.88983C11.7325 8.88571 12.1923 8.88173 12.5 9.49989C12.7663 10.0347 13.0938 10.953 13.4803 12.05L13.4853 12.0642C13.5756 12.32 13.7165 12.7195 13.5313 12.9843C13.3426 13.254 12.9219 13.7968 12.6172 14.1483C12.5392 14.2384 12.3828 14.4444 12.5959 14.7803C12.6489 14.8638 12.6946 14.9494 12.745 15.0436C12.948 15.4233 13.2266 15.9444 14.3595 17.0426C15.5029 18.1511 16.9374 18.7892 17.4665 19.0015C17.6103 19.083 17.9558 19.1922 18.1875 18.9765C18.2941 18.8773 18.4948 18.6208 18.7138 18.3411C18.9709 18.0127 19.2531 17.6522 19.4375 17.4765C19.4431 17.4714 19.4488 17.4662 19.4547 17.4608C19.578 17.3477 19.7734 17.1685 20.1328 17.3124C20.4475 17.4384 21.6548 18.0194 22.5666 18.4582C22.7459 18.5445 22.9138 18.6253 23.0613 18.696C23.2062 18.742 23.4167 18.9112 23.4167 19.2503C23.4167 20.0154 22.875 22.2811 20.2422 22.3279C17.6094 22.3748 14.438 20.9979 12.0244 18.3361C9.52345 15.578 8.78125 13.7343 8.78125 12.05C8.78125 9.99478 10.2188 8.8905 11.1407 8.8905C11.1796 8.8905 11.2185 8.89016 11.2572 8.88983Z" fill="#0E121B"/>
</svg>
