<svg width="32" height="32" viewBox="0 0 32 32" fill="none" xmlns="http://www.w3.org/2000/svg">
<path d="M10.3676 16.7937C10.3676 17.9543 11.2587 18.9075 12.3454 18.9075C13.4511 18.9075 14.325 17.9543 14.3232 16.7937C14.3422 15.6314 13.4511 14.6783 12.3454 14.6783C11.2397 14.6783 10.3676 15.6331 10.3676 16.7937Z" fill="#0E121B"/>
<path d="M17.6767 16.7937C17.6767 17.9543 18.5678 18.9075 19.6545 18.9075C20.7602 18.9075 21.6323 17.9543 21.6323 16.7937C21.6514 15.6314 20.7602 14.6783 19.6545 14.6783C18.5488 14.6783 17.6767 15.6331 17.6767 16.7937Z" fill="#0E121B"/>
<path fill-rule="evenodd" clip-rule="evenodd" d="M2.65396 5.27606C2 6.55953 2 8.23969 2 11.6V20.4C2 23.7603 2 25.4405 2.65396 26.7239C3.2292 27.8529 4.14708 28.7708 5.27606 29.346C6.55953 30 8.23969 30 11.6 30H20.4C23.7603 30 25.4405 30 26.7239 29.346C27.8529 28.7708 28.7708 27.8529 29.346 26.7239C30 25.4405 30 23.7603 30 20.4V11.6C30 8.23969 30 6.55953 29.346 5.27606C28.7708 4.14708 27.8529 3.2292 26.7239 2.65396C25.4405 2 23.7603 2 20.4 2H11.6C8.23969 2 6.55953 2 5.27606 2.65396C4.14708 3.2292 3.2292 4.14708 2.65396 5.27606ZM19.0973 8C20.6892 8.25903 22.212 8.71399 23.6361 9.33998C26.1261 12.8335 27.3633 16.7738 26.9065 21.3184C25.0013 22.6567 23.1533 23.4687 21.3364 24C20.8865 23.4205 20.4886 22.8029 20.1442 22.1553C20.8 21.9211 21.4299 21.6322 22.0251 21.2951C21.8694 21.1856 21.7154 21.071 21.5649 20.9531C17.9881 22.5438 14.0551 22.5438 10.4351 20.9531C10.2863 21.071 10.1323 21.1856 9.9748 21.2951C10.5683 21.6306 11.1964 21.9195 11.8523 22.1536C11.5079 22.8029 11.1082 23.4189 10.66 23.9983C8.84487 23.467 6.99856 22.6551 5.09342 21.3184C4.70409 17.3981 5.48276 13.4213 8.35518 9.3433C9.77927 8.71565 11.3037 8.25903 12.8974 8C13.0946 8.33209 13.3283 8.77875 13.4857 9.13408C15.1469 8.89498 16.8236 8.89498 18.5159 9.13408C18.6734 8.77875 18.9018 8.33209 19.0973 8Z" fill="#0E121B"/>
</svg>
