<svg width="32" height="32" viewBox="0 0 32 32" fill="none" xmlns="http://www.w3.org/2000/svg">
<path fill-rule="evenodd" clip-rule="evenodd" d="M2 14.8C2 10.3196 2 8.07937 2.87195 6.36808C3.63893 4.86278 4.86278 3.63893 6.36808 2.87195C8.07937 2 10.3196 2 14.8 2H17.2C21.6804 2 23.9206 2 25.6319 2.87195C27.1372 3.63893 28.3611 4.86278 29.1281 6.36808C30 8.07937 30 10.3196 30 14.8V17.2C30 21.6804 30 23.9206 29.1281 25.6319C28.3611 27.1372 27.1372 28.3611 25.6319 29.1281C23.9206 30 21.6804 30 17.2 30H14.8C10.3196 30 8.07937 30 6.36808 29.1281C4.86278 28.3611 3.63893 27.1372 2.87195 25.6319C2 23.9206 2 21.6804 2 17.2V14.8ZM16.3366 12.488C15.4664 12.488 14.9409 12.7352 14.9409 13.3779C14.9409 14.0796 15.8452 14.3883 16.9671 14.7712C18.796 15.3955 21.2032 16.2172 21.2134 19.2609C21.2134 22.2106 18.8653 23.9079 15.4499 23.9079C14.0378 23.9079 12.4943 23.6278 10.9672 22.9686V19.0466C12.3465 19.8047 14.0871 20.365 15.4499 20.365C16.3695 20.365 17.0263 20.1178 17.0263 19.3597C17.0263 18.5825 16.046 18.2272 14.8625 17.7983C13.0602 17.1451 10.7866 16.3211 10.7866 13.5756C10.7866 10.6589 13.0033 8.91211 16.3366 8.91211C17.6995 8.91211 19.0459 9.12634 20.4088 9.67014V13.5427C19.1609 12.867 17.5846 12.488 16.3366 12.488Z" fill="white"/>
<path d="M30.0001 17.3736C30 20.3792 29.9946 22.3604 29.7104 23.8543L24.9624 24.8916V17.8161L30.0001 16.6445V17.3736Z" fill="white"/>
<path fill-rule="evenodd" clip-rule="evenodd" d="M2 14.8C2 11.7868 2 9.78681 2.26522 8.27953L25.788 2.95361C27.2218 3.72439 28.3878 4.91515 29.1281 6.36808C30 8.07937 30 10.3196 30 14.8V17.2C30 21.6804 30 23.9206 29.1281 25.6319C28.3611 27.1372 27.1372 28.3611 25.6319 29.1281C23.9206 30 21.6804 30 17.2 30H14.8C10.3196 30 8.07937 30 6.36808 29.1281C4.86278 28.3611 3.63893 27.1372 2.87195 25.6319C2 23.9206 2 21.6804 2 17.2V14.8ZM16.3366 12.488C15.4664 12.488 14.9409 12.7352 14.9409 13.3779C14.9409 14.0796 15.8452 14.3883 16.9671 14.7712C18.796 15.3955 21.2032 16.2172 21.2134 19.2609C21.2134 22.2106 18.8653 23.9079 15.4499 23.9079C14.0378 23.9079 12.4943 23.6278 10.9672 22.9686V19.0466C12.3465 19.8047 14.0871 20.365 15.4499 20.365C16.3695 20.365 17.0263 20.1178 17.0263 19.3597C17.0263 18.5825 16.046 18.2272 14.8625 17.7983C13.0602 17.1451 10.7866 16.3211 10.7866 13.5756C10.7866 10.6589 13.0033 8.91211 16.3366 8.91211C17.6995 8.91211 19.0459 9.12634 20.4088 9.67014V13.5427C19.1609 12.867 17.5846 12.488 16.3366 12.488Z" fill="white"/>
<path d="M29.7104 23.8543C29.5818 24.53 29.3961 25.1059 29.1281 25.6319C28.3611 27.1372 27.1372 28.3611 25.6319 29.1281C23.9718 29.9739 21.814 29.9992 17.5963 29.9999H16.0586V26.8367L29.7104 23.8543Z" fill="white"/>
<path d="M17.2 2H14.8C13.9283 2 13.1414 2 12.4268 2.00642V5.97052L25.7854 2.95225C25.7346 2.92495 25.6834 2.89818 25.6319 2.87195C24.6819 2.38788 23.5688 2.17255 22 2.07676C20.7429 2 19.1931 2 17.2 2Z" fill="white"/>
<path d="M30.0001 17.3736C30 20.3792 29.9946 22.3604 29.7104 23.8543L24.9624 24.8916V17.8161L30.0001 16.6445V17.3736Z" fill="white"/>
</svg>
