<svg width="32" height="32" viewBox="0 0 32 32" fill="none" xmlns="http://www.w3.org/2000/svg">
<path fill-rule="evenodd" clip-rule="evenodd" d="M16.0099 4C9.36875 4 4 9.49998 4 16.3042C4 21.7432 7.43994 26.3472 12.2121 27.9767C12.8087 28.0991 13.0272 27.7119 13.0272 27.3862C13.0272 27.1009 13.0076 26.1232 13.0076 25.1044C9.6667 25.8379 8.97099 23.6377 8.97099 23.6377C8.43409 22.2117 7.63858 21.8452 7.63858 21.8452C6.54511 21.0914 7.71823 21.0914 7.71823 21.0914C8.93117 21.1729 9.56763 22.3544 9.56763 22.3544C10.6412 24.2284 12.3711 23.6989 13.0671 23.3729C13.1664 22.5784 13.4847 22.0284 13.8228 21.7229C11.1582 21.4377 8.35469 20.3784 8.35469 15.6522C8.35469 14.3077 8.8316 13.2077 9.58729 12.3522C9.46807 12.0467 9.0504 10.7835 9.70677 9.09273C9.70677 9.09273 10.7208 8.76673 13.0073 10.3557C13.9863 10.0864 14.9958 9.94938 16.0099 9.94823C17.024 9.94823 18.0577 10.091 19.0123 10.3557C21.299 8.76673 22.3131 9.09273 22.3131 9.09273C22.9695 10.7835 22.5515 12.0467 22.4323 12.3522C23.2079 13.2077 23.6652 14.3077 23.6652 15.6522C23.6652 20.3784 20.8617 21.4172 18.1772 21.7229C18.6148 22.1099 18.9924 22.8432 18.9924 24.0044C18.9924 25.6544 18.9727 26.9787 18.9727 27.3859C18.9727 27.7119 19.1915 28.0991 19.7879 27.9769C24.56 26.3469 27.9999 21.7432 27.9999 16.3042C28.0196 9.49998 22.6312 4 16.0099 4Z" fill="#24292F"/>
</svg>
