<svg width="32" height="32" viewBox="0 0 32 32" fill="none" xmlns="http://www.w3.org/2000/svg">
<path d="M22.5475 16.0837C22.5813 19.7157 25.7337 20.9243 25.7687 20.9397C25.742 21.0249 25.2649 22.6621 24.1078 24.3532C23.1074 25.8152 22.0693 27.2718 20.4338 27.302C18.8268 27.3316 18.3101 26.3491 16.4728 26.3491C14.6361 26.3491 14.062 27.2719 12.5408 27.3317C10.9622 27.3914 9.76003 25.7507 8.75145 24.294C6.69045 21.3143 5.11542 15.8742 7.23028 12.202C8.2809 10.3784 10.1584 9.22356 12.1963 9.19394C13.7465 9.16437 15.2097 10.2368 16.1573 10.2368C17.1044 10.2368 18.8825 8.9471 20.7517 9.13652C21.5342 9.16909 23.7308 9.45261 25.1412 11.5172C25.0276 11.5876 22.5203 13.0472 22.5475 16.0837ZM19.5274 7.16521C20.3655 6.15072 20.9296 4.73845 20.7757 3.33325C19.5676 3.38181 18.1068 4.13827 17.2403 5.15221C16.4637 6.0501 15.7836 7.48722 15.9671 8.86461C17.3136 8.96879 18.6892 8.18035 19.5274 7.16521Z" fill="black"/>
</svg>
