<svg width="32" height="32" viewBox="0 0 32 32" fill="none" xmlns="http://www.w3.org/2000/svg">
<path d="M27.3079 14.9231C28.7947 14.9231 30 13.7178 30 12.231C30 10.7442 28.7946 9.53895 27.3078 9.53895C25.8209 9.53895 24.6154 10.7443 24.6154 12.2313V14.9231H27.3079ZM19.7692 14.9231C21.2561 14.9231 22.4615 13.7177 22.4615 12.2308V4.6928C22.4615 3.20588 21.2561 2.00049 19.7692 2.00049C18.2823 2.00049 17.0769 3.20588 17.0769 4.6928V12.2308C17.0769 13.7177 18.2823 14.9231 19.7692 14.9231Z" fill="#2EB67D"/>
<path d="M4.6921 17.0769C3.2053 17.0769 2.00002 18.2822 2.00002 19.769C2.00002 21.2558 3.20542 22.461 4.69221 22.461C6.17913 22.461 7.38463 21.2557 7.38463 19.7687V17.0769H4.6921ZM12.2308 17.0769C10.7439 17.0769 9.53848 18.2823 9.53848 19.7692V27.3072C9.53848 28.7941 10.7439 29.9995 12.2308 29.9995C13.7177 29.9995 14.9231 28.7941 14.9231 27.3072V19.7692C14.9231 18.2823 13.7177 17.0769 12.2308 17.0769Z" fill="#E01E5A"/>
<path d="M17.0771 27.3081C17.0771 28.7949 18.2824 30.0002 19.7692 30.0002C21.256 30.0002 22.4613 28.7948 22.4613 27.308C22.4613 25.8211 21.2559 24.6156 19.769 24.6156L17.0771 24.6156L17.0771 27.3081ZM17.0771 19.7695C17.0771 21.2564 18.2825 22.4618 19.7694 22.4618L27.3074 22.4618C28.7944 22.4618 29.9998 21.2564 29.9998 19.7695C29.9998 18.2825 28.7944 17.0771 27.3074 17.0771L19.7695 17.0771C18.2825 17.0771 17.0771 18.2825 17.0771 19.7695Z" fill="#ECB22E"/>
<path d="M14.9229 4.69185C14.9229 3.20506 13.7176 1.99978 12.2308 1.99978C10.744 1.99978 9.53871 3.20518 9.53871 4.69197C9.53871 6.17889 10.7441 7.38439 12.231 7.38439L14.9229 7.38439L14.9229 4.69185ZM14.9229 12.2305C14.9229 10.7436 13.7175 9.53824 12.2306 9.53824L4.69255 9.53824C3.20563 9.53824 2.00024 10.7436 2.00024 12.2305C2.00024 13.7175 3.20563 14.9229 4.69255 14.9229L12.2306 14.9229C13.7175 14.9229 14.9229 13.7175 14.9229 12.2305Z" fill="#36C5F0"/>
</svg>
