<svg width="32" height="32" viewBox="0 0 32 32" fill="none" xmlns="http://www.w3.org/2000/svg">
<path d="M10.5015 27.1343L10.304 28.3226C10.2521 28.6874 10.5118 29 10.9273 29H15.1349C15.6543 29 16.0699 28.6353 16.1218 28.1663L17.0049 22.6433C17.0568 22.1743 17.5243 21.8096 17.9918 21.8096H18.6151C22.6668 21.8096 25.8874 20.1423 26.8224 15.3487C27.186 13.3687 27.0302 11.6493 25.9913 10.503C25.9092 10.407 25.8236 10.3182 25.7334 10.2348C25.7268 10.2582 25.719 10.284 25.7096 10.3116C25.1434 13.2236 23.8689 15.2938 22.0142 16.6184C20.162 17.9412 17.8532 18.4329 15.3945 18.4329H13.005C12.9694 18.4329 12.9415 18.444 12.9163 18.466C12.8903 18.4887 12.8611 18.5294 12.8478 18.5929L11.5245 27.1343H10.5015Z" fill="#0E121B"/>
<path d="M17.5762 3C20.3812 3 22.5628 3.57315 23.7576 4.97996C24.8484 6.23046 25.1601 7.58517 24.8484 9.61723C24.8246 9.68892 24.8117 9.76061 24.7997 9.82727C24.7855 9.90596 24.7726 9.97765 24.7445 10.0341C23.7056 15.5571 20.0695 17.4329 15.3945 17.4329H13.005C12.4337 17.4329 11.9662 17.8497 11.8623 18.4228L10.6675 26.1343H5.68094C5.26539 26.1343 4.95372 25.7695 5.00566 25.3527L8.38206 3.98998C8.48595 3.41683 8.95345 3 9.52484 3H17.5762Z" fill="#0E121B"/>
</svg>
