<svg width="32" height="32" viewBox="0 0 32 32" fill="none" xmlns="http://www.w3.org/2000/svg">
<path d="M22.9054 10.774C22.7449 10.3604 22.5529 10.065 22.2428 9.75483C21.9327 9.44465 21.6373 9.25264 21.2239 9.09201C20.9119 8.97016 20.4431 8.82615 19.5792 8.78737C18.6452 8.74491 18.3646 8.73568 15.9982 8.73568C15.7029 8.73568 15.4389 8.73568 15.2026 8.73568C13.5506 8.73568 13.2349 8.74676 12.4172 8.78368C11.5533 8.82245 11.0845 8.96646 10.7725 9.08832C10.3591 9.24895 10.0637 9.44096 9.75362 9.75114C9.44351 10.0613 9.25154 10.3567 9.09095 10.7703C8.96913 11.0823 8.82515 11.5513 8.78639 12.4153C8.74393 13.3496 8.7347 13.6284 8.7347 15.9953C8.7347 18.3623 8.74393 18.6429 8.78639 19.5771C8.82515 20.4412 8.97097 20.9102 9.09095 21.2222C9.25154 21.6357 9.44351 21.9312 9.75362 22.2413C10.0637 22.5515 10.3591 22.7435 10.7725 22.9042C11.0845 23.026 11.5533 23.17 12.4172 23.2106C13.3512 23.2531 13.6318 23.2623 15.9982 23.2623C18.3646 23.2623 18.6452 23.2531 19.5792 23.2106C20.4431 23.1719 20.9119 23.0279 21.2239 22.906C21.6373 22.7454 21.9327 22.5534 22.2428 22.2432C22.5529 21.933 22.7449 21.6394 22.9054 21.2259C23.0273 20.9138 23.1712 20.4449 23.21 19.5808C23.2525 18.6466 23.2617 18.366 23.2617 16.0009C23.2617 13.6357 23.2525 13.3551 23.21 12.4209C23.1712 11.5568 23.0254 11.0879 22.9054 10.7758V10.774ZM15.9982 20.552C13.486 20.552 11.4481 18.5155 11.4481 16.0009C11.4481 13.4862 13.486 11.4497 15.9982 11.4497C18.5104 11.4497 20.5483 13.488 20.5483 16.0009C20.5483 18.5137 18.5123 20.552 15.9982 20.552ZM20.7273 12.3341C20.1403 12.3341 19.6641 11.8578 19.6641 11.2706C19.6641 10.6835 20.1403 10.2072 20.7273 10.2072C21.3143 10.2072 21.7905 10.6835 21.7905 11.2706C21.7905 11.8578 21.3143 12.3341 20.7273 12.3341Z" fill="url(#paint0_radial_177_3340)"/>
<path d="M22.9054 10.774C22.7449 10.3604 22.5529 10.065 22.2428 9.75483C21.9327 9.44465 21.6373 9.25264 21.2239 9.09201C20.9119 8.97016 20.4431 8.82615 19.5792 8.78737C18.6452 8.74491 18.3646 8.73568 15.9982 8.73568C15.7029 8.73568 15.4389 8.73568 15.2026 8.73568C13.5506 8.73568 13.2349 8.74676 12.4172 8.78368C11.5533 8.82245 11.0845 8.96646 10.7725 9.08832C10.3591 9.24895 10.0637 9.44096 9.75362 9.75114C9.44351 10.0613 9.25154 10.3567 9.09095 10.7703C8.96913 11.0823 8.82515 11.5513 8.78639 12.4153C8.74393 13.3496 8.7347 13.6284 8.7347 15.9953C8.7347 18.3623 8.74393 18.6429 8.78639 19.5771C8.82515 20.4412 8.97097 20.9102 9.09095 21.2222C9.25154 21.6357 9.44351 21.9312 9.75362 22.2413C10.0637 22.5515 10.3591 22.7435 10.7725 22.9042C11.0845 23.026 11.5533 23.17 12.4172 23.2106C13.3512 23.2531 13.6318 23.2623 15.9982 23.2623C18.3646 23.2623 18.6452 23.2531 19.5792 23.2106C20.4431 23.1719 20.9119 23.0279 21.2239 22.906C21.6373 22.7454 21.9327 22.5534 22.2428 22.2432C22.5529 21.933 22.7449 21.6394 22.9054 21.2259C23.0273 20.9138 23.1712 20.4449 23.21 19.5808C23.2525 18.6466 23.2617 18.366 23.2617 16.0009C23.2617 13.6357 23.2525 13.3551 23.21 12.4209C23.1712 11.5568 23.0254 11.0879 22.9054 10.7758V10.774ZM15.9982 20.552C13.486 20.552 11.4481 18.5155 11.4481 16.0009C11.4481 13.4862 13.486 11.4497 15.9982 11.4497C18.5104 11.4497 20.5483 13.488 20.5483 16.0009C20.5483 18.5137 18.5123 20.552 15.9982 20.552ZM20.7273 12.3341C20.1403 12.3341 19.6641 11.8578 19.6641 11.2706C19.6641 10.6835 20.1403 10.2072 20.7273 10.2072C21.3143 10.2072 21.7905 10.6835 21.7905 11.2706C21.7905 11.8578 21.3143 12.3341 20.7273 12.3341Z" fill="url(#paint1_radial_177_3340)"/>
<path d="M15.9982 18.955C17.6293 18.955 18.9515 17.6324 18.9515 16.0009C18.9515 14.3695 17.6293 13.0469 15.9982 13.0469C14.367 13.0469 13.0448 14.3695 13.0448 16.0009C13.0448 17.6324 14.367 18.955 15.9982 18.955Z" fill="url(#paint2_radial_177_3340)"/>
<path d="M15.9982 18.955C17.6293 18.955 18.9515 17.6324 18.9515 16.0009C18.9515 14.3695 17.6293 13.0469 15.9982 13.0469C14.367 13.0469 13.0448 14.3695 13.0448 16.0009C13.0448 17.6324 14.367 18.955 15.9982 18.955Z" fill="url(#paint3_radial_177_3340)"/>
<path d="M27.9778 9.20102C27.9022 8.23725 27.7379 7.5892 27.4001 6.90422C27.1232 6.34295 26.8168 5.92569 26.3719 5.49735C25.5782 4.73852 24.6073 4.27694 23.4499 4.11078C22.8888 4.02954 22.778 4.00554 19.9096 4H16.0037C10.994 4 9.52838 4.00554 9.24412 4.02954C8.21597 4.11447 7.57545 4.27694 6.87956 4.62405C6.34241 4.89176 5.91786 5.20009 5.50069 5.63397C4.73835 6.42419 4.27688 7.39534 4.11075 8.55297C4.02953 9.11424 4.00554 9.22871 4 12.0942C4 13.0505 4 14.3079 4 15.9954C4 21.0025 4.00554 22.4667 4.02953 22.751C4.1126 23.7517 4.2695 24.3813 4.60175 25.0699C5.23673 26.3882 6.44947 27.3778 7.87817 27.7471C8.37287 27.8745 8.91924 27.9446 9.62067 27.9778C9.91786 27.9908 12.9469 28 15.9778 28C19.0088 28 22.0397 27.9963 22.3295 27.9815C23.1417 27.9428 23.6142 27.88 24.1347 27.7452C25.5727 27.3741 26.7633 26.3993 27.4112 25.0625C27.736 24.3905 27.9022 23.7369 27.9778 22.7879C27.9945 22.5811 28 19.2836 28 15.9917C28 12.6997 27.9926 9.4078 27.976 9.20102H27.9778ZM24.8048 19.6547C24.7605 20.5982 24.611 21.2426 24.3932 21.8057C24.1661 22.3891 23.8634 22.8821 23.3706 23.375C22.8777 23.868 22.3849 24.1708 21.8016 24.3979C21.2386 24.6176 20.5925 24.7671 19.6493 24.8096C18.7042 24.8521 18.4033 24.8631 15.9963 24.8631C13.5893 24.8631 13.2884 24.8521 12.3433 24.8096C11.4001 24.7671 10.7559 24.6176 10.1929 24.3979C9.6096 24.1708 9.11675 23.868 8.6239 23.375C8.13106 22.8821 7.82833 22.3873 7.60129 21.8057C7.38163 21.2426 7.23396 20.5982 7.18966 19.6547C7.14721 18.7094 7.13613 18.4085 7.13613 16.0009C7.13613 13.5934 7.14721 13.2924 7.18966 12.3471C7.23212 11.4036 7.38163 10.7593 7.60129 10.1962C7.82833 9.61274 8.13106 9.11978 8.6239 8.62682C9.11675 8.13386 9.61144 7.83106 10.1929 7.60582C10.7559 7.38611 11.4001 7.23656 12.3433 7.19409C13.2884 7.15163 13.5911 7.14055 15.9945 7.14055H15.9982C18.4033 7.14055 18.7042 7.15163 19.6493 7.19409C20.5925 7.23656 21.2367 7.38611 21.8016 7.60582C22.3849 7.83106 22.8777 8.13386 23.3706 8.62682C23.8634 9.11978 24.1661 9.61459 24.3932 10.1962C24.611 10.7593 24.7605 11.4036 24.8048 12.3471C24.8473 13.2924 24.8583 13.5952 24.8583 16.0009C24.8583 18.4066 24.8473 18.7094 24.8048 19.6547Z" fill="url(#paint4_radial_177_3340)"/>
<path d="M27.9778 9.20102C27.9022 8.23725 27.7379 7.5892 27.4001 6.90422C27.1232 6.34295 26.8168 5.92569 26.3719 5.49735C25.5782 4.73852 24.6073 4.27694 23.4499 4.11078C22.8888 4.02954 22.778 4.00554 19.9096 4H16.0037C10.994 4 9.52838 4.00554 9.24412 4.02954C8.21597 4.11447 7.57545 4.27694 6.87956 4.62405C6.34241 4.89176 5.91786 5.20009 5.50069 5.63397C4.73835 6.42419 4.27688 7.39534 4.11075 8.55297C4.02953 9.11424 4.00554 9.22871 4 12.0942C4 13.0505 4 14.3079 4 15.9954C4 21.0025 4.00554 22.4667 4.02953 22.751C4.1126 23.7517 4.2695 24.3813 4.60175 25.0699C5.23673 26.3882 6.44947 27.3778 7.87817 27.7471C8.37287 27.8745 8.91924 27.9446 9.62067 27.9778C9.91786 27.9908 12.9469 28 15.9778 28C19.0088 28 22.0397 27.9963 22.3295 27.9815C23.1417 27.9428 23.6142 27.88 24.1347 27.7452C25.5727 27.3741 26.7633 26.3993 27.4112 25.0625C27.736 24.3905 27.9022 23.7369 27.9778 22.7879C27.9945 22.5811 28 19.2836 28 15.9917C28 12.6997 27.9926 9.4078 27.976 9.20102H27.9778ZM24.8048 19.6547C24.7605 20.5982 24.611 21.2426 24.3932 21.8057C24.1661 22.3891 23.8634 22.8821 23.3706 23.375C22.8777 23.868 22.3849 24.1708 21.8016 24.3979C21.2386 24.6176 20.5925 24.7671 19.6493 24.8096C18.7042 24.8521 18.4033 24.8631 15.9963 24.8631C13.5893 24.8631 13.2884 24.8521 12.3433 24.8096C11.4001 24.7671 10.7559 24.6176 10.1929 24.3979C9.6096 24.1708 9.11675 23.868 8.6239 23.375C8.13106 22.8821 7.82833 22.3873 7.60129 21.8057C7.38163 21.2426 7.23396 20.5982 7.18966 19.6547C7.14721 18.7094 7.13613 18.4085 7.13613 16.0009C7.13613 13.5934 7.14721 13.2924 7.18966 12.3471C7.23212 11.4036 7.38163 10.7593 7.60129 10.1962C7.82833 9.61274 8.13106 9.11978 8.6239 8.62682C9.11675 8.13386 9.61144 7.83106 10.1929 7.60582C10.7559 7.38611 11.4001 7.23656 12.3433 7.19409C13.2884 7.15163 13.5911 7.14055 15.9945 7.14055H15.9982C18.4033 7.14055 18.7042 7.15163 19.6493 7.19409C20.5925 7.23656 21.2367 7.38611 21.8016 7.60582C22.3849 7.83106 22.8777 8.13386 23.3706 8.62682C23.8634 9.11978 24.1661 9.61459 24.3932 10.1962C24.611 10.7593 24.7605 11.4036 24.8048 12.3471C24.8473 13.2924 24.8583 13.5952 24.8583 16.0009C24.8583 18.4066 24.8473 18.7094 24.8048 19.6547Z" fill="url(#paint5_radial_177_3340)"/>
<defs>
<radialGradient id="paint0_radial_177_3340" cx="0" cy="0" r="1" gradientUnits="userSpaceOnUse" gradientTransform="translate(10.375 29.8485) rotate(-90) scale(23.7858 22.1226)">
<stop stop-color="#FFDD55"/>
<stop offset="0.1" stop-color="#FFDD55"/>
<stop offset="0.5" stop-color="#FF543E"/>
<stop offset="1" stop-color="#C837AB"/>
</radialGradient>
<radialGradient id="paint1_radial_177_3340" cx="0" cy="0" r="1" gradientUnits="userSpaceOnUse" gradientTransform="translate(-0.0201269 5.72892) rotate(78.6806) scale(10.6323 43.827)">
<stop stop-color="#3771C8"/>
<stop offset="0.128" stop-color="#3771C8"/>
<stop offset="1" stop-color="#6600FF" stop-opacity="0"/>
</radialGradient>
<radialGradient id="paint2_radial_177_3340" cx="0" cy="0" r="1" gradientUnits="userSpaceOnUse" gradientTransform="translate(10.375 29.8485) rotate(-90) scale(23.7858 22.1226)">
<stop stop-color="#FFDD55"/>
<stop offset="0.1" stop-color="#FFDD55"/>
<stop offset="0.5" stop-color="#FF543E"/>
<stop offset="1" stop-color="#C837AB"/>
</radialGradient>
<radialGradient id="paint3_radial_177_3340" cx="0" cy="0" r="1" gradientUnits="userSpaceOnUse" gradientTransform="translate(-0.0201269 5.72892) rotate(78.6806) scale(10.6323 43.827)">
<stop stop-color="#3771C8"/>
<stop offset="0.128" stop-color="#3771C8"/>
<stop offset="1" stop-color="#6600FF" stop-opacity="0"/>
</radialGradient>
<radialGradient id="paint4_radial_177_3340" cx="0" cy="0" r="1" gradientUnits="userSpaceOnUse" gradientTransform="translate(10.375 29.8485) rotate(-90) scale(23.7858 22.1226)">
<stop stop-color="#FFDD55"/>
<stop offset="0.1" stop-color="#FFDD55"/>
<stop offset="0.5" stop-color="#FF543E"/>
<stop offset="1" stop-color="#C837AB"/>
</radialGradient>
<radialGradient id="paint5_radial_177_3340" cx="0" cy="0" r="1" gradientUnits="userSpaceOnUse" gradientTransform="translate(-0.0201269 5.72892) rotate(78.6806) scale(10.6323 43.827)">
<stop stop-color="#3771C8"/>
<stop offset="0.128" stop-color="#3771C8"/>
<stop offset="1" stop-color="#6600FF" stop-opacity="0"/>
</radialGradient>
</defs>
</svg>
