<svg width="32" height="32" viewBox="0 0 32 32" fill="none" xmlns="http://www.w3.org/2000/svg">
<path fill-rule="evenodd" clip-rule="evenodd" d="M10.5779 12.7621C10.0003 13.5948 9.71151 14.5976 9.71151 15.7721H9.70801C9.70801 17.2517 10.1281 18.3964 10.9682 19.2028C11.8083 20.0092 12.8829 20.4124 14.1886 20.4124C15.0374 20.4124 15.7515 20.3283 16.3291 20.1565C17.2445 19.9006 18.1773 19.2554 19.1294 18.2176C19.1977 18.3035 19.3167 18.4683 19.4882 18.7172C19.6563 18.9644 19.7788 19.1275 19.8558 19.2151C19.931 19.2993 20.0588 19.436 20.2373 19.6218C20.4158 19.8094 20.6224 20.0057 20.8604 20.2091C21.1492 20.3283 21.396 20.3108 21.599 20.1565C21.718 20.0548 22.4811 19.3939 23.8918 18.1668C24.0283 18.0651 24.0948 17.9459 24.0948 17.8109C24.0948 17.6917 24.0441 17.555 23.9425 17.4024L23.358 16.6241C23.2389 16.4628 23.1129 16.1998 22.9904 15.8317C22.8609 15.4688 22.7979 15.0656 22.7979 14.6221V8.45133C22.7979 8.38471 22.7909 8.16733 22.7734 7.80269C22.7559 7.43806 22.7314 7.19789 22.6964 7.08745C22.6649 6.977 22.6124 6.77715 22.5424 6.49141C22.4759 6.2004 22.4023 5.97951 22.3148 5.82524C22.2326 5.67097 22.1153 5.49917 21.97 5.30283C21.8248 5.10824 21.669 4.92417 21.501 4.75412C20.4123 3.75137 18.9019 3.25 16.9679 3.25H16.3326C14.8239 3.33415 13.5025 3.74261 12.3736 4.47364C11.2464 5.20466 10.5376 6.32662 10.2488 7.83951C10.2313 7.90788 10.2226 7.96573 10.2226 8.01832C10.2226 8.25674 10.3678 8.40925 10.6549 8.47938L13.583 8.837C13.8543 8.78616 14.024 8.58982 14.0941 8.24972C14.2113 7.70628 14.4739 7.28028 14.8817 6.9735C15.2895 6.66496 15.7743 6.48965 16.3343 6.43706H16.5321C17.297 6.43706 17.857 6.69301 18.2123 7.2049C18.4486 7.57655 18.5711 8.30933 18.5711 9.39622V9.82923C17.535 9.91338 16.7859 9.97999 16.3308 10.0326C14.9902 10.2026 13.8613 10.4831 12.9459 10.8741C11.943 11.3 11.1554 11.9294 10.5779 12.7621ZM14.5859 16.8555C14.2551 16.4523 14.0906 15.9229 14.0906 15.2602L14.0888 15.262C14.0888 13.7999 14.8344 12.8568 16.3291 12.4325C16.8366 12.2975 17.584 12.2274 18.5694 12.2274V12.8638C18.5694 13.4072 18.5659 13.7999 18.5571 14.0383C18.5484 14.2767 18.4976 14.587 18.4048 14.9674C18.3103 15.3496 18.1703 15.702 17.9848 16.0263C17.5945 16.7573 17.0414 17.2149 16.3308 17.4024C16.2958 17.4024 16.2311 17.4112 16.1383 17.4287C16.0438 17.4445 15.9738 17.4515 15.9213 17.4515C15.3612 17.4515 14.9184 17.2534 14.5859 16.8555Z" fill="#0E121B"/>
<path d="M24.9331 23.2667C24.8683 23.3351 24.8158 23.4017 24.7808 23.4718V23.4753C24.7633 23.5087 24.7563 23.5332 24.7563 23.5507C24.7388 23.5858 24.7458 23.6173 24.7808 23.6524C24.8158 23.6875 24.8805 23.705 24.9856 23.705C25.3409 23.6542 25.7312 23.6051 26.1582 23.5525C26.5468 23.5174 26.8863 23.4999 27.1733 23.4999C27.9557 23.4999 28.43 23.6033 28.5998 23.8049C28.6663 23.8891 28.7013 24.0258 28.7013 24.2134C28.7013 24.7919 28.3897 25.8192 27.7597 27.2988C27.7089 27.4338 27.7317 27.5267 27.8367 27.5793C27.8682 27.595 27.9032 27.6038 27.9382 27.6038C28.0064 27.6038 28.0817 27.5722 28.1692 27.5021C28.7433 27.0095 29.1931 26.3574 29.5169 25.551C29.8389 24.7446 29.9999 24.0433 29.9999 23.4473V23.2685C29.9999 23.0651 29.9684 22.9126 29.8984 22.8127C29.7479 22.6234 29.2876 22.4971 28.5228 22.427C28.3722 22.3937 28.2095 22.3832 28.0397 22.4007C27.4289 22.4183 26.8005 22.5129 26.1582 22.6812C25.7662 22.7829 25.3584 22.9792 24.9331 23.2667Z" fill="#0E121B"/>
<path d="M2.45856 23.0124C2.27128 22.8932 2.13652 22.902 2.05251 23.0387C2.0175 23.0896 2 23.1387 2 23.1913C2 23.2754 2.05251 23.3631 2.15577 23.4454C4.02325 25.1284 6.13402 26.4344 8.49681 27.36C10.8544 28.2856 13.3572 28.7502 16.0053 28.7502C17.7205 28.7502 19.4759 28.51 21.2734 28.0367C23.0726 27.5599 24.7021 26.8885 26.16 26.0207C26.6361 25.7332 27.0264 25.4772 27.3327 25.2564C27.5689 25.0863 27.6162 24.8987 27.4727 24.6954C27.3274 24.4903 27.1279 24.4412 26.8724 24.5429C26.8113 24.5727 26.7137 24.6151 26.5784 24.674L26.5293 24.6954L26.1618 24.8479C22.9186 26.0891 19.6335 26.7114 16.308 26.7114C11.3182 26.7114 6.70109 25.4772 2.45856 23.0124Z" fill="#0E121B"/>
</svg>
